# AST/ASF file generated using VICON BodyLanguage
# -----------------------------------------------
:version 1.10
:name VICON
:units
  mass 1.0
  length 0.45
  angle deg
:documentation
   .ast/.asf automatically generated from VICON data using
   VICON BodyBuilder and BodyLanguage model FoxedUp or BRILLIANT.MOD
:root
   order TX TY TZ RX RY RZ
   axis XYZ
   position 0 0 0  
   orientation 0 0 0 
:bonedata
  begin
     id 1 
     name lhipjoint
     direction 0.625129 -0.738222 0.253461 
     length 2.5165 
     axis 0 0 0  XYZ
  end
  begin
     id 2 
     name lfemur
     direction 0.34202 -0.939693 0  
     length 7.54288  
     axis 0 0 20  XYZ
    dof rx ry rz
    limits (-160.0 20.0)
           (-70.0 70.0)
           (-60.0 70.0)
  end
  begin
     id 3 
     name ltibia
     direction 0.34202 -0.939693 0   
     length 7.71864   
     axis 0 0 20   XYZ
    dof rx
    limits (-10.0 170.0)
  end
  begin
     id 4 
     name lfoot
     direction 0.0772037 -0.212115 0.97419   
     length 2.18429   
     axis -90 7.62852e-016 20   XYZ
    dof rx rz
    limits (-45.0 90.0)
           (-70.0 20.0)
  end
  begin
     id 5 
     name ltoes
     direction 1.53513e-011 -4.21834e-011 1   
     length 1.09718   
     axis -90 7.62852e-016 20   XYZ
    dof rx
    limits (-90.0 20.0)
  end
  begin
     id 6 
     name rhipjoint
     direction -0.621946 -0.740623 0.254285   
     length 2.50835  
     axis 0 0 0  XYZ 
  end
  begin
     id 7 
     name rfemur
     direction -0.34202 -0.939693 0   
     length 7.43366   
     axis 0 0 -20   XYZ
    dof rx ry rz
    limits (-160.0 20.0)
           (-70.0 70.0)
           (-70.0 60.0)
  end
  begin
     id 8 
     name rtibia
     direction -0.34202 -0.939693 0   
     length 7.77122   
     axis 0 0 -20   XYZ
    dof rx
    limits (-10.0 170.0)
 end
 begin
     id 9 
     name rfoot
     direction -0.082694 -0.2272 0.970331   
     length 2.2293  
     axis -90 -7.62852e-016 -20   XYZ
    dof rx rz
    limits (-45.0 90.0)
           (-20.0 70.0)
  end
  begin
     id 10 
     name rtoes
     direction -1.53565e-011 -4.21695e-011 1   
     length 1.1178   
     axis -90 -7.62852e-016 -20   XYZ
    dof rx
    limits (-90.0 20.0)
  end
  begin
     id 11 
     name lowerback
     direction -0.000695208 0.988391 -0.151929   
     length 1.95077   
     axis 0 0 0   XYZ
    dof rx ry rz
    limits (-20.0 45.0)
           (-30.0 30.0)
           (-30.0 30.0)
  end
  begin
     id 12 
     name upperback
     direction -0.00268925 0.999885 -0.0149203   
     length 1.96246   
     axis 0 0 0   XYZ
    dof rx ry rz
    limits (-20.0 45.0)
           (-30.0 30.0)
           (-30.0 30.0)
  end
  begin
     id 13 
     name thorax
     direction -0.000848408 0.998481 0.0550912   
     length 2.00867   
     axis 0 0 0   XYZ
    dof rx ry rz
    limits (-20.0 45.0)
           (-30.0 30.0)
           (-30.0 30.0)
  end
  begin
     id 14 
     name lowerneck
     direction -0.00577709 0.998999 0.0443608   
     length 1.75762   
     axis 0 0 0   XYZ
    dof rx ry rz
    limits (-20.0 45.0)
           (-30.0 30.0)
           (-30.0 30.0)
  end
  begin
     id 15 
     name upperneck
     direction 0.0320945 0.999136 0.0264105   
     length 1.72601   
     axis 0 0 0   XYZ
    dof rx ry rz
    limits (-20.0 45.0)
           (-30.0 30.0)
           (-30.0 30.0)
  end
  begin
     id 16
     name head
     direction 0.0120552 0.999916 0.00480151  
     length 1.79973  
     axis 0 0 0   XYZ
    dof rx ry rz
    limits (-20.0 45.0)
           (-30.0 30.0)
           (-30.0 30.0)
  end
  begin
     id 17 
     name lclavicle
     direction 0.909 0.371533 -0.188897  
     length 3.47956  
     axis 0 0 0   XYZ
    dof ry rz
    limits (-20.0 10.0)
           (0.0 20.0)
  end
  begin
     id 18 
     name lhumerus
     direction 1 -4.48963e-011 -6.48352e-028   
     length 5.52302   
     axis 180 -30 -90   XYZ
    dof rx ry rz
    limits (-60.0 90.0)
           (-90.0 90.0)
           (-90.0 90.0)
  end
  begin
     id 19
     name lradius
     direction 1 -4.48968e-011 -4.78536e-027   
     length 3.58675   
     axis 180 -30 -90   XYZ
    dof rx
    limits (-10.0 170.0)
  end
  begin
     id 20
     name lwrist
     direction 1 -4.48942e-011 -9.9435e-027   
     length 1.79337   
     axis 8.54312e-015 90 90   XYZ
    dof ry
    limits (-180.0 0.0)
 end
  begin
     id 21 
     name lhand
     direction 1 -4.4904e-011 -1.9887e-026   
     length 0.536412   
     axis 1.26896e-014 90 90   XYZ
    dof rx rz
    limits (-90.0 90.0)
           (-45.0 45.0)
  end
  begin
     id 22 
     name lfingers
     direction 1 -4.48893e-011 -3.9774e-026   
     length 0.432469   
     axis 2.53792e-014 90 90   XYZ
    dof rx
    limits (0.0 90.0)
  end
  begin
     id 23
     name lthumb
     direction 0.707107 -6.34934e-011 0.707107   
     length 0.620942   
     axis -90 45 2.85299e-015   XYZ
    dof rx rz
    limits (-45.0 45.0)
           (-45.0 45.0)
  end
  begin
     id 24 
     name rclavicle
     direction -0.89595 0.416672 -0.153813   
     length 3.44099  
     axis 0 0 0   XYZ 
    dof ry rz
    limits (-10.0 20.0)
           (-20.0 0.0)
  end
  begin
     id 25 
     name rhumerus
     direction -1 -4.48952e-011 5.57804e-028  
     length 5.8478   
     axis 180 30 90   XYZ
    dof rx ry rz
    limits (-90.0 60.0)
           (-90.0 90.0)
           (-90.0 90.0)
  end
  begin
     id 26 
     name rradius
     direction -1 -4.48967e-011 -7.93646e-027   
     length 3.62717   
     axis 180 30 90   XYZ
    dof rx
    limits (-10.0 170.0)
  end
  begin
     id 27 
     name rwrist
     direction -1 -4.49008e-011 -9.9435e-027   
     length 1.81359   
     axis 8.54312e-015 -90 -90   XYZ
    dof ry
    limits (-180.0 0.0)
  end
  begin
     id 28
     name rhand
     direction -1 -4.48812e-011 -1.9887e-026   
     length 0.650516   
     axis 1.26896e-014 -90 -90   XYZ
    dof rx rz
    limits (-90.0 90.0)
           (-45.0 45.0)
  end
  begin
     id 29
     name rfingers
     direction -1 -4.49228e-011 -3.9774e-026   
     length 0.524463   
     axis 2.53792e-014 -90 -90   XYZ
    dof rx
    limits (0.0 90.0)
  end
  begin
     id 30
     name rthumb
     direction -0.707107 -6.34912e-011 0.707107   
     length 0.753027   
     axis -90 -45 -2.85299e-015   XYZ
    dof rx rz
    limits (-45.0 45.0)
           (-45.0 45.0)
  end
:hierarchy
  begin
    root lhipjoint rhipjoint lowerback
    lhipjoint lfemur
    lfemur ltibia
    ltibia lfoot
    lfoot ltoes
    rhipjoint rfemur
    rfemur rtibia
    rtibia rfoot
    rfoot rtoes
    lowerback upperback
    upperback thorax
    thorax lowerneck lclavicle rclavicle
    lowerneck upperneck
    upperneck head
    lclavicle lhumerus
    lhumerus lradius
    lradius lwrist
    lwrist lhand lthumb
    lhand lfingers
    rclavicle rhumerus
    rhumerus rradius
    rradius rwrist
    rwrist rhand rthumb
    rhand rfingers
  end

#!OML:ASF F:\VICON\USERDATA\INSTALL\rory3\rory3.ASF
:FULLY-SPECIFIED
:DEGREES
1799
root -7.75252 17.8864 -16.4976 -179.89 218.204 -179.859
lowerback 9.41045 -3.95623 -0.81479
upperback 3.6635 -5.38326 -0.931864
thorax -1.47142 -2.70362 0.0580846
lowerneck 0.288687 -8.86654 3.04488
upperneck 15.9334 -12.9119 3.67879
head 4.82611 -6.04866 0.110869
rclavicle -2.80286e-014 2.18663e-014
rhumerus -32.6913 -8.06535 -81.3045
rradius 35.6762
rwrist 14.8525
rhand -19.6679 16.1877
rfingers 7.12502
rthumb 6.66042 -13.6875
lclavicle -2.80286e-014 2.18663e-014
lhumerus -29.2703 12.6668 73.3079
lradius 5.4589
lwrist 5.64839
lhand -39.9211 30.5116
lfingers 7.12502
lthumb -12.8918 -299.907
rfemur 2.25039 26.0503 16.0501
rtibia 32.048
rfoot -8.74713 4.56186
rtoes -19.2545
lfemur -14.7924 11.5644 -13.0815
ltibia 11.0644
lfoot 8.81388 13.98
ltoes -2.44796
1800
root -7.77484 17.8518 -16.6948 -178.823 218.564 -181.511
lowerback 9.70021 -3.83783 0.640371
upperback 3.72413 -5.09112 -0.66983
thorax -1.66996 -2.55045 -0.488676
lowerneck 0.028379 -8.63137 2.5548
upperneck 15.5884 -12.6963 4.63312
head 4.85259 -5.9205 0.47064
rclavicle 1.50082e-014 -6.75868e-015
rhumerus -32.7332 -8.14415 -81.6171
rradius 36.0592
rwrist 14.7181
rhand -19.4118 16.3079
rfingers 7.12502
rthumb 6.90766 -13.5594
lclavicle 1.50082e-014 -6.75868e-015
lhumerus -29.1665 12.1741 73.1408
lradius 4.90607
lwrist 5.61323
lhand -40.2333 30.7065
lfingers 7.12502
lthumb -13.1927 -299.731
rfemur 2.90612 26.844 17.9554
rtibia 30.0572
rfoot -9.95135 3.76027
rtoes -19.3313
lfemur -15.1635 11.9416 -11.1178
ltibia 10.7252
lfoot 8.86248 14.0716
ltoes -2.70981
1801
root -7.78573 17.8148 -16.8711 -178.54 218.502 -181.847
lowerback 9.88892 -3.84229 1.13745
upperback 3.71712 -5.04444 -0.470848
thorax -1.80364 -2.52553 -0.550675
lowerneck 0.807448 -8.18478 2.45409
upperneck 13.0979 -11.8962 5.14448
head 4.39924 -5.60806 0.865688
rclavicle 1.43125e-014 -1.19271e-015
rhumerus -32.7805 -8.18023 -81.4372
rradius 36.3249
rwrist 14.623
rhand -18.6201 17.2149
rfingers 7.12502
rthumb 7.67181 -12.626
lclavicle 1.43125e-014 -1.19271e-015
lhumerus -29.239 11.9715 73.3522
lradius 4.7562
lwrist 5.31898
lhand -39.8469 31.2217
lfingers 7.12502
lthumb -12.8201 -299.192
rfemur 3.50869 26.648 18.4376
rtibia 28.1574
rfoot -11.2241 3.28181
rtoes -18.349
lfemur -15.7066 11.8472 -10.4813
ltibia 10.6766
lfoot 8.41525 13.9638
ltoes -4.14873
1802
root -7.79299 17.7816 -17.0463 -178.619 218.465 -181.506
lowerback 9.84862 -4.24581 1.08968
upperback 3.65365 -5.57638 -0.200658
thorax -1.82622 -2.79179 -0.185744
lowerneck 0.721031 -7.56903 1.13014
upperneck 13.0724 -11.0298 5.19546
head 4.47598 -5.23607 1.13009
rclavicle -2.71341e-014 -7.55382e-015
rhumerus -32.6515 -6.38948 -81.5417
rradius 36.6409
rwrist 14.3991
rhand -18.6154 17.2844
rfingers 7.12502
rthumb 7.67641 -12.5562
lclavicle -2.71341e-014 -7.55382e-015
lhumerus -29.9847 13.1292 73.3834
lradius 4.83704
lwrist 4.827
lhand -40.1556 30.6077
lfingers 7.12502
lthumb -13.1177 -299.825
rfemur 3.7994 26.0647 18.1661
rtibia 26.5091
rfoot -12.1381 3.03461
rtoes -16.4778
lfemur -16.1951 11.7466 -10.4908
ltibia 10.5927
lfoot 7.65301 14.2249
ltoes -6.25076
1803
root -7.79876 17.7672 -17.2302 -178.399 218.396 -181.684
lowerback 9.93317 -5.30936 0.873363
upperback 3.46146 -6.97921 0.784855
thorax -1.93927 -3.49622 1.1191
lowerneck 1.25495 -6.11276 -2.38179
upperneck 12.1595 -8.98228 6.00588
head 4.23171 -4.379 2.12022
rclavicle 5.11871e-015 -3.77691e-015
rhumerus -32.1252 -1.78955 -81.7241
rradius 36.8143
rwrist 13.5586
rhand -18.0479 18.2812
rfingers 7.12502
rthumb 8.22414 -11.5387
lclavicle 5.11871e-015 -3.77691e-015
lhumerus -31.7723 16.6023 73.3265
lradius 5.19972
lwrist 4.50666
lhand -40.9446 30.3799
lfingers 7.12502
lthumb -13.8783 -300.103
rfemur 3.91167 25.2225 18.4119
rtibia 25.1838
rfoot -12.9483 2.99461
rtoes -14.7557
lfemur -16.5656 11.633 -10.0133
ltibia 10.3758
lfoot 6.79853 14.7503
ltoes -8.97633
1804
root -7.80176 17.7662 -17.4148 -178.276 218.201 -181.856
lowerback 9.95031 -4.48948 2.30682
upperback 4.03701 -5.79196 -0.209808
thorax -1.6046 -2.8916 -0.849776
lowerneck 0.505518 -6.79433 0.761527
upperneck 10.5052 -9.8742 6.31245
head 3.65636 -4.69385 1.63228
rclavicle -5.74488e-014 5.96354e-015
rhumerus -32.0443 -5.82105 -82.2461
rradius 36.9628
rwrist 13.6738
rhand -14.9091 22.4817
rfingers 7.12502
rthumb 11.2524 -7.19651
lclavicle -5.74488e-014 5.96354e-015
lhumerus -29.4563 13.0553 73.3195
lradius 4.49591
lwrist 4.00486
lhand -41.1321 30.9435
lfingers 7.12502
lthumb -14.0589 -299.552
rfemur 3.93179 23.7973 18.7128
rtibia 24.2586
rfoot -13.902 2.57779
rtoes -16.4918
lfemur -16.7339 11.3565 -9.58212
ltibia 9.98083
lfoot 5.9738 15.0875
ltoes -12.436
1805
root -7.80296 17.7593 -17.6082 -177.747 218.006 -182.531
lowerback 11.4068 -3.70757 0.949476
upperback 3.50712 -4.79976 1.68244
thorax -2.64309 -2.41388 1.85795
lowerneck -0.256634 -7.2796 0.540577
upperneck 10.1602 -10.3239 4.70576
head 3.59214 -4.96039 1.10273
rclavicle 2.06985e-014 -1.42131e-014
rhumerus -32.5584 -5.70871 -79.3408
rradius 37.1922
rwrist 13.394
rhand -18.9316 17.9033
rfingers 7.12502
rthumb 7.37113 -11.9483
lclavicle 2.06985e-014 -1.42131e-014
lhumerus -29.2607 12.4772 76.4601
lradius 4.18741
lwrist 3.80506
lhand -41.8313 31.7157
lfingers 7.12502
lthumb -14.7327 -298.828
rfemur 3.63237 22.3086 19.4463
rtibia 23.6487
rfoot -14.4676 1.43965
rtoes -18.3393
lfemur -16.9895 11.1303 -8.70513
ltibia 9.45337
lfoot 4.94136 15.4805
ltoes -14.7798
1806
root -7.80858 17.7464 -17.7981 -177.159 217.943 -183.202
lowerback 11.9807 -3.54429 0.99936
upperback 3.25693 -4.53336 2.47113
thorax -3.16126 -2.28091 2.66599
lowerneck -0.736852 -7.13482 0.564445
upperneck 9.8849 -10.0198 3.76817
head 3.51226 -4.83553 0.793239
rclavicle -7.38485e-014 2.28602e-014
rhumerus -32.8179 -5.02526 -78.5953
rradius 37.3635
rwrist 12.9959
rhand -18.7031 18.0143
rfingers 7.12502
rthumb 7.59178 -11.8294
lclavicle -7.38485e-014 2.28602e-014
lhumerus -29.2807 12.4397 77.4802
lradius 4.09044
lwrist 4.03742
lhand -42.6299 30.4159
lfingers 7.12502
lthumb -15.5019 -300.186
rfemur 3.17655 21.2733 20.1266
rtibia 23.1985
rfoot -14.876 0.954614
rtoes -14.9061
lfemur -17.3939 11.0748 -7.79979
ltibia 9.06152
lfoot 3.37166 16.0157
ltoes -14.9474
1807
root -7.81875 17.739 -17.9746 -176.852 218.023 -183.567
lowerback 12.1437 -3.64964 1.49621
upperback 3.18832 -4.59992 2.64981
thorax -3.34297 -2.3149 2.60081
lowerneck -0.886121 -6.73532 0.534121
upperneck 9.60759 -9.42315 3.32651
head 3.40457 -4.55835 0.677373
rclavicle -3.21037e-014 -1.35174e-014
rhumerus -32.9642 -3.86913 -78.9628
rradius 37.5378
rwrist 11.6696
rhand -14.2042 22.9545
rfingers 7.12502
rthumb 11.9322 -6.68548
lclavicle -3.21037e-014 -1.35174e-014
lhumerus -29.3258 12.6347 77.5249
lradius 3.8738
lwrist 3.92018
lhand -43.8231 27.4878
lfingers 7.12502
lthumb -16.6509 -303.206
rfemur 2.7683 20.2375 20.548
rtibia 22.807
rfoot -15.3591 0.9999
rtoes -11.3662
lfemur -17.6404 11.1097 -7.21094
ltibia 8.80218
lfoot 1.65515 16.5874
ltoes -14.6804
1808
root -7.82914 17.731 -18.1537 -176.55 218.111 -183.918
lowerback 12.387 -3.70092 1.90316
upperback 3.03318 -4.59483 2.87214
thorax -3.65103 -2.31258 2.63193
lowerneck -0.906795 -6.31621 0.317665
upperneck 9.35419 -8.81143 3.04884
head 3.30405 -4.27525 0.649375
rclavicle 1.20762e-013 -3.53837e-014
rhumerus -33.1168 -4.10155 -78.2692
rradius 36.8321
rwrist 13.4168
rhand -16.9996 21.5762
rfingers 7.12502
rthumb 9.23576 -8.20155
lclavicle 1.20762e-013 -3.53837e-014
lhumerus -29.3998 12.7186 77.6423
lradius 3.56166
lwrist 3.74637
lhand -44.2422 27.6553
lfingers 7.12502
lthumb -17.0543 -303.073
rfemur 2.32657 19.4632 21.0832
rtibia 22.5007
rfoot -15.745 0.703692
rtoes -9.315
lfemur -17.7846 11.1377 -6.66275
ltibia 8.43402
lfoot 0.011116 17.2643
ltoes -13.914
1809
root -7.84182 17.7279 -18.3337 -176.362 218.278 -184.074
lowerback 12.5472 -3.82994 2.04884
upperback 2.87768 -4.7265 3.08913
thorax -3.89055 -2.3774 2.81848
lowerneck -0.932975 -5.81305 0.0756681
upperneck 9.14988 -8.08655 2.71584
head 3.21915 -3.93745 0.610142
rclavicle -5.48646e-014 -1.86858e-014
rhumerus -33.2444 -2.90624 -78.3575
rradius 36.5555
rwrist 13.0122
rhand -20.0069 18.3624
rfingers 7.12502
rthumb 6.33318 -11.523
lclavicle -5.48646e-014 -1.86858e-014
lhumerus -29.6005 13.183 77.6812
lradius 3.44008
lwrist 3.79163
lhand -43.5887 30.9134
lfingers 7.12502
lthumb -16.4252 -299.762
rfemur 1.89054 19.27 21.5422
rtibia 22.2923
rfoot -16.127 0.0580328
rtoes -6.63442
lfemur -17.9362 11.2339 -6.29456
ltibia 8.14289
lfoot -1.78465 18.0985
ltoes -12.7565
